<?xml version="1.0" encoding="UTF-8" standalone="no"?>
<!DOCTYPE svg PUBLIC "-//W3C//DTD SVG 1.1//EN"
 "http://www.w3.org/Graphics/SVG/1.1/DTD/svg11.dtd">
<!-- Generated by graphviz version 2.38.0 (20140413.2041)
 -->
<!-- Title: my diagram Pages: 1 -->
<svg width="242pt" height="350pt"
 viewBox="0.00 0.00 242.00 350.00" xmlns="http://www.w3.org/2000/svg" xmlns:xlink="http://www.w3.org/1999/xlink">
<g id="graph0" class="graph" transform="scale(1 1) rotate(0) translate(4 346)">
<title>my diagram</title>
<polygon fill="white" stroke="none" points="-4,4 -4,-346 238,-346 238,4 -4,4"/>
<g id="clust2" class="cluster"><title>cluster_1</title>
<polygon fill="none" stroke="black" points="8,-65 8,-190 150,-190 150,-65 8,-65"/>
</g>
<!-- n0 -->
<g id="node1" class="node"><title>n0</title>
<ellipse fill="none" stroke="red" cx="115" cy="-324" rx="27" ry="18"/>
<text text-anchor="middle" x="115" y="-320.3" font-family="Times,serif" font-size="14.00">n0</text>
</g>
<!-- n1 -->
<g id="node2" class="node"><title>n1</title>
<ellipse fill="none" stroke="black" cx="115" cy="-251" rx="27" ry="18"/>
<text text-anchor="middle" x="115" y="-247.3" font-family="Times,serif" font-size="14.00">n1</text>
</g>
<!-- n0&#45;&gt;n1 -->
<g id="edge1" class="edge"><title>n0&#45;&gt;n1</title>
<path fill="none" stroke="black" d="M115,-305.813C115,-297.789 115,-288.047 115,-279.069"/>
<polygon fill="black" stroke="black" points="118.5,-279.029 115,-269.029 111.5,-279.029 118.5,-279.029"/>
</g>
<!-- n2 -->
<g id="node3" class="node"><title>n2</title>
<ellipse fill="none" stroke="black" cx="43" cy="-164" rx="27" ry="18"/>
<text text-anchor="middle" x="43" y="-160.3" font-family="Times,serif" font-size="14.00">n2</text>
</g>
<!-- n1&#45;&gt;n2 -->
<g id="edge2" class="edge"><title>n1&#45;&gt;n2</title>
<path fill="none" stroke="black" d="M90.6482,-242.686C76.8476,-237.267 60.492,-228.452 51,-215 46.3481,-208.408 44.0035,-200.115 42.9097,-192.19"/>
<polygon fill="black" stroke="black" points="46.3932,-191.843 42.1035,-182.155 39.4157,-192.403 46.3932,-191.843"/>
<text text-anchor="middle" x="81" y="-203.8" font-family="Times,serif" font-size="14.00">a subgraph</text>
</g>
<!-- n3 -->
<g id="node4" class="node"><title>n3</title>
<ellipse fill="none" stroke="black" cx="115" cy="-164" rx="27" ry="18"/>
<text text-anchor="middle" x="115" y="-160.3" font-family="Times,serif" font-size="14.00">n3</text>
</g>
<!-- n1&#45;&gt;n3 -->
<g id="edge3" class="edge"><title>n1&#45;&gt;n3</title>
<path fill="none" stroke="black" d="M115,-232.799C115,-221.163 115,-205.548 115,-192.237"/>
<polygon fill="black" stroke="black" points="118.5,-192.175 115,-182.175 111.5,-192.175 118.5,-192.175"/>
<text text-anchor="middle" x="145" y="-203.8" font-family="Times,serif" font-size="14.00">a subgraph</text>
</g>
<!-- n4 -->
<g id="node5" class="node"><title>n4</title>
<ellipse fill="none" stroke="black" cx="115" cy="-91" rx="27" ry="18"/>
<text text-anchor="middle" x="115" y="-87.3" font-family="Times,serif" font-size="14.00">n4</text>
</g>
<!-- n1&#45;&gt;n4 -->
<g id="edge4" class="edge"><title>n1&#45;&gt;n4</title>
<path fill="none" stroke="black" d="M139.315,-242.768C152.679,-237.411 168.106,-228.63 176,-215 179.341,-209.231 177.434,-206.511 176,-200 168.988,-168.166 148.94,-136.218 133.725,-115.421"/>
<polygon fill="black" stroke="black" points="136.363,-113.106 127.552,-107.223 130.771,-117.317 136.363,-113.106"/>
<text text-anchor="middle" x="204" y="-160.3" font-family="Times,serif" font-size="14.00">a subgraph</text>
</g>
<!-- n3&#45;&gt;n4 -->
<g id="edge5" class="edge"><title>n3&#45;&gt;n4</title>
<path fill="none" stroke="black" d="M115,-145.813C115,-137.789 115,-128.047 115,-119.069"/>
<polygon fill="black" stroke="black" points="118.5,-119.029 115,-109.029 111.5,-119.029 118.5,-119.029"/>
</g>
<!-- n5 -->
<g id="node6" class="node"><title>n5</title>
<ellipse fill="none" stroke="black" cx="115" cy="-18" rx="27" ry="18"/>
<text text-anchor="middle" x="115" y="-14.3" font-family="Times,serif" font-size="14.00">n5</text>
</g>
<!-- n4&#45;&gt;n5 -->
<g id="edge6" class="edge"><title>n4&#45;&gt;n5</title>
<path fill="none" stroke="black" d="M115,-72.8129C115,-64.7895 115,-55.0475 115,-46.0691"/>
<polygon fill="black" stroke="black" points="118.5,-46.0288 115,-36.0288 111.5,-46.0289 118.5,-46.0288"/>
</g>
</g>
</svg>
